<svg xmlns="http://www.w3.org/2000/svg" viewBox="0 0 253.23 262.84"><defs><style>.cls-1{fill:#404040;}</style></defs><g id="Layer_2" data-name="Layer 2"><g id="ëÎÓÈ_1" data-name="ëÎÓÈ 1"><path class="cls-1" d="M220.56,202c-22.24-8.31-47.23-17.62-56.68-30.85a10.68,10.68,0,0,1-2-6.25V148.72a3.49,3.49,0,0,1,.68-2,68.73,68.73,0,0,0,10.37-23.45c5,.37,11.66-16.5,11.3-33.38-.24-7.21-3.94-8.19-6.33-6.63C182,67.82,182.38,55.8,181.5,41a27.94,27.94,0,0,0-5.1-14.58C158.77,1.71,107-14.67,84.52,19.24c-15.87,7.47-19.35,34.89-9.36,63.88-2.39-1.41-5.94-.33-6.17,6.73-.36,16.88,6.32,33.75,11.3,33.38a68.73,68.73,0,0,0,10.37,23.45,3.52,3.52,0,0,1,.68,2v16.15a10.75,10.75,0,0,1-2,6.25C79.89,184.35,54.91,193.67,32.66,202A50.24,50.24,0,0,0,0,249v13.81H253.23V249A50.23,50.23,0,0,0,220.56,202Z"/></g></g></svg>